<mxfile host="app.diagrams.net" modified="2024-05-09T21:03:39.583Z" agent="Mozilla/5.0 (X11; Linux x86_64) AppleWebKit/537.36 (KHTML, like Gecko) Chrome/123.0.0.0 Safari/537.36" version="24.3.1" etag="aNohtjhGDbs4aCLRR1z0" type="github">
  <diagram name="PÃ¡gina-1" id="9Af3QKaoHJkYzy4M5rfv">
    <mxGraphModel>
      <root>
        <mxCell id="0" />
        <mxCell id="1" parent="0" />
      </root>
    </mxGraphModel>
  </diagram>
</mxfile>
